<svg width="140" height="34" viewBox="0 0 140 34" fill="none" xmlns="http://www.w3.org/2000/svg">
<path d="M46.99 9.05V13.31H53.86V17.27H46.99V21.89H54.76V26H41.86V4.94H54.76V9.05H46.99ZM63.5205 3.8V26H58.3905V3.8H63.5205ZM72.6681 3.8V26H67.5381V3.8H72.6681ZM79.2658 7.52C78.3658 7.52 77.6258 7.26 77.0458 6.74C76.4858 6.2 76.2058 5.54 76.2058 4.76C76.2058 3.96 76.4858 3.3 77.0458 2.78C77.6258 2.24 78.3658 1.97 79.2658 1.97C80.1458 1.97 80.8658 2.24 81.4258 2.78C82.0058 3.3 82.2958 3.96 82.2958 4.76C82.2958 5.54 82.0058 6.2 81.4258 6.74C80.8658 7.26 80.1458 7.52 79.2658 7.52ZM81.8158 9.26V26H76.6858V9.26H81.8158ZM90.9634 11.63C91.4634 10.85 92.1534 10.22 93.0334 9.74C93.9134 9.26 94.9434 9.02 96.1234 9.02C97.5034 9.02 98.7534 9.37 99.8734 10.07C100.993 10.77 101.873 11.77 102.513 13.07C103.173 14.37 103.503 15.88 103.503 17.6C103.503 19.32 103.173 20.84 102.513 22.16C101.873 23.46 100.993 24.47 99.8734 25.19C98.7534 25.89 97.5034 26.24 96.1234 26.24C94.9634 26.24 93.9334 26 93.0334 25.52C92.1534 25.04 91.4634 24.42 90.9634 23.66V33.98H85.8334V9.26H90.9634V11.63ZM98.2834 17.6C98.2834 16.32 97.9234 15.32 97.2034 14.6C96.5034 13.86 95.6334 13.49 94.5934 13.49C93.5734 13.49 92.7034 13.86 91.9834 14.6C91.2834 15.34 90.9334 16.35 90.9334 17.63C90.9334 18.91 91.2834 19.92 91.9834 20.66C92.7034 21.4 93.5734 21.77 94.5934 21.77C95.6134 21.77 96.4834 21.4 97.2034 20.66C97.9234 19.9 98.2834 18.88 98.2834 17.6ZM113.305 26.24C111.845 26.24 110.545 25.99 109.405 25.49C108.265 24.99 107.365 24.31 106.705 23.45C106.045 22.57 105.675 21.59 105.595 20.51H110.665C110.725 21.09 110.995 21.56 111.475 21.92C111.955 22.28 112.545 22.46 113.245 22.46C113.885 22.46 114.375 22.34 114.715 22.1C115.075 21.84 115.255 21.51 115.255 21.11C115.255 20.63 115.005 20.28 114.505 20.06C114.005 19.82 113.195 19.56 112.075 19.28C110.875 19 109.875 18.71 109.075 18.41C108.275 18.09 107.585 17.6 107.005 16.94C106.425 16.26 106.135 15.35 106.135 14.21C106.135 13.25 106.395 12.38 106.915 11.6C107.455 10.8 108.235 10.17 109.255 9.71C110.295 9.25 111.525 9.02 112.945 9.02C115.045 9.02 116.695 9.54 117.895 10.58C119.115 11.62 119.815 13 119.995 14.72H115.255C115.175 14.14 114.915 13.68 114.475 13.34C114.055 13 113.495 12.83 112.795 12.83C112.195 12.83 111.735 12.95 111.415 13.19C111.095 13.41 110.935 13.72 110.935 14.12C110.935 14.6 111.185 14.96 111.685 15.2C112.205 15.44 113.005 15.68 114.085 15.92C115.325 16.24 116.335 16.56 117.115 16.88C117.895 17.18 118.575 17.68 119.155 18.38C119.755 19.06 120.065 19.98 120.085 21.14C120.085 22.12 119.805 23 119.245 23.78C118.705 24.54 117.915 25.14 116.875 25.58C115.855 26.02 114.665 26.24 113.305 26.24ZM139.303 17.36C139.303 17.84 139.273 18.34 139.213 18.86H127.603C127.683 19.9 128.013 20.7 128.593 21.26C129.193 21.8 129.923 22.07 130.783 22.07C132.063 22.07 132.953 21.53 133.453 20.45H138.913C138.633 21.55 138.123 22.54 137.383 23.42C136.663 24.3 135.753 24.99 134.653 25.49C133.553 25.99 132.323 26.24 130.963 26.24C129.323 26.24 127.863 25.89 126.583 25.19C125.303 24.49 124.303 23.49 123.583 22.19C122.863 20.89 122.503 19.37 122.503 17.63C122.503 15.89 122.853 14.37 123.553 13.07C124.273 11.77 125.273 10.77 126.553 10.07C127.833 9.37 129.303 9.02 130.963 9.02C132.583 9.02 134.023 9.36 135.283 10.04C136.543 10.72 137.523 11.69 138.223 12.95C138.943 14.21 139.303 15.68 139.303 17.36ZM134.053 16.01C134.053 15.13 133.753 14.43 133.153 13.91C132.553 13.39 131.803 13.13 130.903 13.13C130.043 13.13 129.313 13.38 128.713 13.88C128.133 14.38 127.773 15.09 127.633 16.01H134.053Z" fill="#1C1C1C"/>
<path d="M15 0.99999C15 0.447704 14.5517 -0.00348505 14.0006 0.0332886C10.3874 0.274412 6.96996 1.81683 4.3934 4.39339C1.58035 7.20643 0 11.0217 0 15C0 18.9782 1.58035 22.7935 4.39339 25.6066C6.96996 28.1831 10.3873 29.7256 14.0006 29.9667C14.5517 30.0035 15 29.5523 15 29V18.874C13.2748 18.4299 12 16.8638 12 15C12 13.1362 13.2748 11.5701 15 11.126V0.99999Z" fill="#FF6525"/>
<path d="M18 18.874C19.7252 18.4299 21 16.8638 21 15C21 13.1362 19.7252 11.5701 18 11.126V5C18 4.44772 18.4491 3.99434 18.998 4.05489C21.2837 4.30698 23.4324 5.41932 25.0711 7.22182C26.9464 9.28473 28 12.0826 28 15C28 17.9174 26.9464 20.7153 25.0711 22.7782C23.4324 24.5807 21.2837 25.693 18.998 25.9451C18.4491 26.0057 18 25.5523 18 25V18.874Z" fill="#FF6525"/>
</svg>
